/* XPM */
static char *grad-motif[] = {
/* columns rows colors chars-per-pixel */
"1 24 24 1",
"  c #619FA1",
". c #65A1A3",
"X c #69A4A6",
"o c #6CA6A8",
"O c #70A8AA",
"+ c #74ABAD",
"@ c #78ADAF",
"# c #7CAFB1",
"$ c #80B2B4",
"% c #83B4B6",
"& c #87B6B8",
"* c #8BB9BB",
"= c #8FBBBD",
"- c #93BDBF",
"; c #96BFC1",
": c #9AC2C4",
"> c #9EC4C6",
", c #A2C6C8",
"< c #A6C9CB",
"1 c #AACBCD",
"2 c #ADCDCF",
"3 c #B1D0D2",
"4 c #B5D2D4",
"5 c #B7D3D5",
/* pixels */
" ",
".",
"X",
"o",
"O",
"+",
"@",
"#",
"$",
"%",
"&",
"*",
"=",
"-",
";",
":",
">",
",",
"<",
"1",
"2",
"3",
"4",
"4"
};
